<mxfile host="app.diagrams.net" agent="Mozilla/5.0 (Windows NT 10.0; Win64; x64) AppleWebKit/537.36 (KHTML, like Gecko) Chrome/136.0.0.0 Safari/537.36" version="27.0.3">
  <diagram name="Page-1" id="6V8Lyb79c5mG5hbQeRzc">
    <mxGraphModel dx="3905" dy="2489" grid="1" gridSize="10" guides="1" tooltips="1" connect="1" arrows="1" fold="1" page="1" pageScale="1" pageWidth="850" pageHeight="1100" math="0" shadow="0">
      <root>
        <mxCell id="0" />
        <mxCell id="1" parent="0" />
        <mxCell id="XFbj4B8m7LpfgLLOF7sG-1" value="" style="shape=umlLifeline;perimeter=lifelinePerimeter;whiteSpace=wrap;html=1;container=1;dropTarget=0;collapsible=0;recursiveResize=0;outlineConnect=0;portConstraint=eastwest;newEdgeStyle={&quot;curved&quot;:0,&quot;rounded&quot;:0};participant=umlActor;" vertex="1" parent="1">
          <mxGeometry x="-830" y="-40" width="30" height="1720" as="geometry" />
        </mxCell>
        <mxCell id="XFbj4B8m7LpfgLLOF7sG-2" value="MyBookOffers" style="shape=umlLifeline;perimeter=lifelinePerimeter;whiteSpace=wrap;html=1;container=1;dropTarget=0;collapsible=0;recursiveResize=0;outlineConnect=0;portConstraint=eastwest;newEdgeStyle={&quot;curved&quot;:0,&quot;rounded&quot;:0};fontSize=14;fontStyle=1;fillColor=#dae8fc;strokeColor=#6c8ebf;" vertex="1" parent="1">
          <mxGeometry x="-690" y="-40" width="140" height="1720" as="geometry" />
        </mxCell>
        <mxCell id="XFbj4B8m7LpfgLLOF7sG-19" value="" style="html=1;points=[[0,0,0,0,5],[0,1,0,0,-5],[1,0,0,0,5],[1,1,0,0,-5]];perimeter=orthogonalPerimeter;outlineConnect=0;targetShapes=umlLifeline;portConstraint=eastwest;newEdgeStyle={&quot;curved&quot;:0,&quot;rounded&quot;:0};strokeColor=#000000;fillColor=#dae8fc;" vertex="1" parent="XFbj4B8m7LpfgLLOF7sG-2">
          <mxGeometry x="65" y="80" width="10" height="100" as="geometry" />
        </mxCell>
        <mxCell id="XFbj4B8m7LpfgLLOF7sG-4" value="LibraryController" style="shape=umlLifeline;perimeter=lifelinePerimeter;whiteSpace=wrap;html=1;container=1;dropTarget=0;collapsible=0;recursiveResize=0;outlineConnect=0;portConstraint=eastwest;newEdgeStyle={&quot;curved&quot;:0,&quot;rounded&quot;:0};fontSize=14;fontStyle=1;fillColor=#dae8fc;strokeColor=#6c8ebf;" vertex="1" parent="1">
          <mxGeometry x="-480" y="-40" width="140" height="2080" as="geometry" />
        </mxCell>
        <mxCell id="XFbj4B8m7LpfgLLOF7sG-22" value="" style="html=1;points=[[0,0,0,0,5],[0,1,0,0,-5],[1,0,0,0,5],[1,1,0,0,-5]];perimeter=orthogonalPerimeter;outlineConnect=0;targetShapes=umlLifeline;portConstraint=eastwest;newEdgeStyle={&quot;curved&quot;:0,&quot;rounded&quot;:0};strokeColor=#000000;fillColor=#dae8fc;" vertex="1" parent="XFbj4B8m7LpfgLLOF7sG-4">
          <mxGeometry x="65" y="130" width="10" height="180" as="geometry" />
        </mxCell>
        <mxCell id="XFbj4B8m7LpfgLLOF7sG-36" value="" style="html=1;points=[[0,0,0,0,5],[0,1,0,0,-5],[1,0,0,0,5],[1,1,0,0,-5]];perimeter=orthogonalPerimeter;outlineConnect=0;targetShapes=umlLifeline;portConstraint=eastwest;newEdgeStyle={&quot;curved&quot;:0,&quot;rounded&quot;:0};strokeColor=#000000;fillColor=#dae8fc;" vertex="1" parent="XFbj4B8m7LpfgLLOF7sG-4">
          <mxGeometry x="65" y="370" width="10" height="150" as="geometry" />
        </mxCell>
        <mxCell id="XFbj4B8m7LpfgLLOF7sG-48" value="" style="html=1;points=[[0,0,0,0,5],[0,1,0,0,-5],[1,0,0,0,5],[1,1,0,0,-5]];perimeter=orthogonalPerimeter;outlineConnect=0;targetShapes=umlLifeline;portConstraint=eastwest;newEdgeStyle={&quot;curved&quot;:0,&quot;rounded&quot;:0};strokeColor=#000000;fillColor=#dae8fc;" vertex="1" parent="XFbj4B8m7LpfgLLOF7sG-4">
          <mxGeometry x="65" y="1414" width="10" height="296" as="geometry" />
        </mxCell>
        <mxCell id="XFbj4B8m7LpfgLLOF7sG-13" value="LibraryService" style="shape=umlLifeline;perimeter=lifelinePerimeter;whiteSpace=wrap;html=1;container=1;dropTarget=0;collapsible=0;recursiveResize=0;outlineConnect=0;portConstraint=eastwest;newEdgeStyle={&quot;curved&quot;:0,&quot;rounded&quot;:0};fontSize=14;fontStyle=1;fillColor=#dae8fc;strokeColor=#6c8ebf;" vertex="1" parent="1">
          <mxGeometry x="-280" y="-40" width="120" height="2210" as="geometry" />
        </mxCell>
        <mxCell id="XFbj4B8m7LpfgLLOF7sG-24" value="" style="html=1;points=[[0,0,0,0,5],[0,1,0,0,-5],[1,0,0,0,5],[1,1,0,0,-5]];perimeter=orthogonalPerimeter;outlineConnect=0;targetShapes=umlLifeline;portConstraint=eastwest;newEdgeStyle={&quot;curved&quot;:0,&quot;rounded&quot;:0};strokeColor=#000000;fillColor=#dae8fc;" vertex="1" parent="XFbj4B8m7LpfgLLOF7sG-13">
          <mxGeometry x="55" y="150" width="10" height="160" as="geometry" />
        </mxCell>
        <mxCell id="XFbj4B8m7LpfgLLOF7sG-84" value="" style="html=1;points=[[0,0,0,0,5],[0,1,0,0,-5],[1,0,0,0,5],[1,1,0,0,-5]];perimeter=orthogonalPerimeter;outlineConnect=0;targetShapes=umlLifeline;portConstraint=eastwest;newEdgeStyle={&quot;curved&quot;:0,&quot;rounded&quot;:0};strokeColor=#000000;fillColor=#dae8fc;" vertex="1" parent="XFbj4B8m7LpfgLLOF7sG-13">
          <mxGeometry x="55" y="1494" width="10" height="70" as="geometry" />
        </mxCell>
        <mxCell id="XFbj4B8m7LpfgLLOF7sG-16" value="LibraryMappper" style="shape=umlLifeline;perimeter=lifelinePerimeter;whiteSpace=wrap;html=1;container=1;dropTarget=0;collapsible=0;recursiveResize=0;outlineConnect=0;portConstraint=eastwest;newEdgeStyle={&quot;curved&quot;:0,&quot;rounded&quot;:0};fontSize=14;fontStyle=1;fillColor=#dae8fc;strokeColor=#6c8ebf;" vertex="1" parent="1">
          <mxGeometry x="-80" y="-40" width="130" height="2210" as="geometry" />
        </mxCell>
        <mxCell id="XFbj4B8m7LpfgLLOF7sG-26" value="" style="html=1;points=[[0,0,0,0,5],[0,1,0,0,-5],[1,0,0,0,5],[1,1,0,0,-5]];perimeter=orthogonalPerimeter;outlineConnect=0;targetShapes=umlLifeline;portConstraint=eastwest;newEdgeStyle={&quot;curved&quot;:0,&quot;rounded&quot;:0};strokeColor=#000000;fillColor=#dae8fc;" vertex="1" parent="XFbj4B8m7LpfgLLOF7sG-16">
          <mxGeometry x="60" y="165" width="10" height="105" as="geometry" />
        </mxCell>
        <mxCell id="XFbj4B8m7LpfgLLOF7sG-87" value="" style="html=1;points=[[0,0,0,0,5],[0,1,0,0,-5],[1,0,0,0,5],[1,1,0,0,-5]];perimeter=orthogonalPerimeter;outlineConnect=0;targetShapes=umlLifeline;portConstraint=eastwest;newEdgeStyle={&quot;curved&quot;:0,&quot;rounded&quot;:0};strokeColor=#000000;fillColor=#dae8fc;" vertex="1" parent="XFbj4B8m7LpfgLLOF7sG-16">
          <mxGeometry x="60" y="1510" width="10" height="70" as="geometry" />
        </mxCell>
        <mxCell id="XFbj4B8m7LpfgLLOF7sG-18" value="Library" style="text;html=1;align=center;verticalAlign=middle;resizable=0;points=[];autosize=1;strokeColor=none;fillColor=none;fontSize=14;fontStyle=1" vertex="1" parent="1">
          <mxGeometry x="-850" y="-70" width="70" height="30" as="geometry" />
        </mxCell>
        <mxCell id="XFbj4B8m7LpfgLLOF7sG-20" value="clicks &quot;Manage Bulk Offers&quot;" style="html=1;verticalAlign=bottom;startArrow=oval;startFill=1;endArrow=block;startSize=8;curved=0;rounded=0;fontSize=13;fontStyle=2;labelBackgroundColor=none;" edge="1" parent="1" target="XFbj4B8m7LpfgLLOF7sG-19">
          <mxGeometry width="60" relative="1" as="geometry">
            <mxPoint x="-810" y="90" as="sourcePoint" />
            <mxPoint x="-595" y="90" as="targetPoint" />
          </mxGeometry>
        </mxCell>
        <mxCell id="XFbj4B8m7LpfgLLOF7sG-21" value="showBulkOffers()" style="html=1;verticalAlign=bottom;startArrow=oval;startFill=1;endArrow=block;startSize=8;curved=0;rounded=0;fontSize=13;fontStyle=2;labelBackgroundColor=none;" edge="1" parent="1" target="XFbj4B8m7LpfgLLOF7sG-22">
          <mxGeometry width="60" relative="1" as="geometry">
            <mxPoint x="-620" y="110" as="sourcePoint" />
            <mxPoint x="-435" y="110" as="targetPoint" />
          </mxGeometry>
        </mxCell>
        <mxCell id="XFbj4B8m7LpfgLLOF7sG-23" value="retrieveBulkOffers()" style="html=1;verticalAlign=bottom;startArrow=oval;startFill=1;endArrow=block;startSize=8;curved=0;rounded=0;fontSize=13;fontStyle=2;labelBackgroundColor=none;" edge="1" parent="1" target="XFbj4B8m7LpfgLLOF7sG-24">
          <mxGeometry width="60" relative="1" as="geometry">
            <mxPoint x="-410" y="130" as="sourcePoint" />
            <mxPoint x="-205" y="130" as="targetPoint" />
          </mxGeometry>
        </mxCell>
        <mxCell id="XFbj4B8m7LpfgLLOF7sG-25" value="DBManager" style="shape=umlLifeline;perimeter=lifelinePerimeter;whiteSpace=wrap;html=1;container=1;dropTarget=0;collapsible=0;recursiveResize=0;outlineConnect=0;portConstraint=eastwest;newEdgeStyle={&quot;curved&quot;:0,&quot;rounded&quot;:0};fontSize=14;fontStyle=1;fillColor=#dae8fc;strokeColor=#6c8ebf;" vertex="1" parent="1">
          <mxGeometry x="120" y="-40" width="100" height="2250" as="geometry" />
        </mxCell>
        <mxCell id="XFbj4B8m7LpfgLLOF7sG-29" value="" style="html=1;points=[[0,0,0,0,5],[0,1,0,0,-5],[1,0,0,0,5],[1,1,0,0,-5]];perimeter=orthogonalPerimeter;outlineConnect=0;targetShapes=umlLifeline;portConstraint=eastwest;newEdgeStyle={&quot;curved&quot;:0,&quot;rounded&quot;:0};strokeColor=#000000;fillColor=#dae8fc;" vertex="1" parent="XFbj4B8m7LpfgLLOF7sG-25">
          <mxGeometry x="45" y="175" width="10" height="70" as="geometry" />
        </mxCell>
        <mxCell id="XFbj4B8m7LpfgLLOF7sG-89" value="" style="html=1;points=[[0,0,0,0,5],[0,1,0,0,-5],[1,0,0,0,5],[1,1,0,0,-5]];perimeter=orthogonalPerimeter;outlineConnect=0;targetShapes=umlLifeline;portConstraint=eastwest;newEdgeStyle={&quot;curved&quot;:0,&quot;rounded&quot;:0};strokeColor=#000000;fillColor=#dae8fc;" vertex="1" parent="XFbj4B8m7LpfgLLOF7sG-25">
          <mxGeometry x="45" y="1530" width="10" height="70" as="geometry" />
        </mxCell>
        <mxCell id="XFbj4B8m7LpfgLLOF7sG-27" value="findBulkOffers()" style="html=1;verticalAlign=bottom;startArrow=oval;startFill=1;endArrow=block;startSize=8;curved=0;rounded=0;fontSize=13;fontStyle=2;labelBackgroundColor=none;" edge="1" parent="1" target="XFbj4B8m7LpfgLLOF7sG-26">
          <mxGeometry width="60" relative="1" as="geometry">
            <mxPoint x="-220" y="140" as="sourcePoint" />
            <mxPoint x="-35" y="140" as="targetPoint" />
          </mxGeometry>
        </mxCell>
        <mxCell id="XFbj4B8m7LpfgLLOF7sG-28" value="find Bulk Offers" style="html=1;verticalAlign=bottom;startArrow=oval;startFill=1;endArrow=block;startSize=8;curved=0;rounded=0;fontSize=13;fontStyle=2;labelBackgroundColor=none;" edge="1" parent="1" target="XFbj4B8m7LpfgLLOF7sG-29">
          <mxGeometry width="60" relative="1" as="geometry">
            <mxPoint x="-10" y="160" as="sourcePoint" />
            <mxPoint x="190" y="160" as="targetPoint" />
          </mxGeometry>
        </mxCell>
        <mxCell id="XFbj4B8m7LpfgLLOF7sG-30" value="return Bulk Offers" style="html=1;verticalAlign=bottom;endArrow=open;dashed=1;endSize=8;curved=0;rounded=0;fontStyle=2;fontSize=13;" edge="1" parent="1">
          <mxGeometry relative="1" as="geometry">
            <mxPoint x="169.49999999999955" y="190" as="sourcePoint" />
            <mxPoint x="-10.000000000000455" y="190" as="targetPoint" />
          </mxGeometry>
        </mxCell>
        <mxCell id="XFbj4B8m7LpfgLLOF7sG-31" value="return Bulk Offers" style="html=1;verticalAlign=bottom;endArrow=open;dashed=1;endSize=8;curved=0;rounded=0;fontStyle=2;fontSize=13;" edge="1" parent="1" target="XFbj4B8m7LpfgLLOF7sG-24">
          <mxGeometry relative="1" as="geometry">
            <mxPoint x="-20.500000000000455" y="220" as="sourcePoint" />
            <mxPoint x="-200.00000000000045" y="220" as="targetPoint" />
          </mxGeometry>
        </mxCell>
        <mxCell id="XFbj4B8m7LpfgLLOF7sG-32" value="return Bulk Offers" style="html=1;verticalAlign=bottom;endArrow=open;dashed=1;endSize=8;curved=0;rounded=0;fontStyle=2;fontSize=13;" edge="1" parent="1">
          <mxGeometry relative="1" as="geometry">
            <mxPoint x="-215.50000000000045" y="250" as="sourcePoint" />
            <mxPoint x="-410" y="250" as="targetPoint" />
          </mxGeometry>
        </mxCell>
        <mxCell id="XFbj4B8m7LpfgLLOF7sG-33" value="ManageBulkOffers" style="shape=umlLifeline;perimeter=lifelinePerimeter;whiteSpace=wrap;html=1;container=1;dropTarget=0;collapsible=0;recursiveResize=0;outlineConnect=0;portConstraint=eastwest;newEdgeStyle={&quot;curved&quot;:0,&quot;rounded&quot;:0};fontSize=14;fontStyle=1;fillColor=#dae8fc;strokeColor=#6c8ebf;" vertex="1" parent="1">
          <mxGeometry x="270" y="-40" width="140" height="1720" as="geometry" />
        </mxCell>
        <mxCell id="XFbj4B8m7LpfgLLOF7sG-34" value="" style="html=1;points=[[0,0,0,0,5],[0,1,0,0,-5],[1,0,0,0,5],[1,1,0,0,-5]];perimeter=orthogonalPerimeter;outlineConnect=0;targetShapes=umlLifeline;portConstraint=eastwest;newEdgeStyle={&quot;curved&quot;:0,&quot;rounded&quot;:0};strokeColor=#000000;fillColor=#dae8fc;" vertex="1" parent="XFbj4B8m7LpfgLLOF7sG-33">
          <mxGeometry x="65" y="310" width="10" height="100" as="geometry" />
        </mxCell>
        <mxCell id="XFbj4B8m7LpfgLLOF7sG-35" value="clicks &quot;Add Bulk Offer&quot;" style="html=1;verticalAlign=bottom;startArrow=oval;startFill=1;endArrow=block;startSize=8;curved=0;rounded=0;fontSize=13;fontStyle=2;labelBackgroundColor=none;" edge="1" parent="1">
          <mxGeometry width="60" relative="1" as="geometry">
            <mxPoint x="-810" y="301" as="sourcePoint" />
            <mxPoint x="339.50000000000045" y="301" as="targetPoint" />
          </mxGeometry>
        </mxCell>
        <mxCell id="XFbj4B8m7LpfgLLOF7sG-37" value="showOfferForm()" style="html=1;verticalAlign=bottom;startArrow=oval;startFill=1;endArrow=block;startSize=8;curved=0;rounded=0;fontSize=13;fontStyle=2;labelBackgroundColor=none;" edge="1" parent="1">
          <mxGeometry width="60" relative="1" as="geometry">
            <mxPoint x="335.00000000000045" y="347" as="sourcePoint" />
            <mxPoint x="-410.6111111111111" y="347" as="targetPoint" />
          </mxGeometry>
        </mxCell>
        <mxCell id="XFbj4B8m7LpfgLLOF7sG-38" value="BulkOffer" style="shape=umlLifeline;perimeter=lifelinePerimeter;whiteSpace=wrap;html=1;container=1;dropTarget=0;collapsible=0;recursiveResize=0;outlineConnect=0;portConstraint=eastwest;newEdgeStyle={&quot;curved&quot;:0,&quot;rounded&quot;:0};fontSize=14;fontStyle=1;fillColor=#dae8fc;strokeColor=#6c8ebf;" vertex="1" parent="1">
          <mxGeometry x="470" y="-40" width="90" height="1720" as="geometry" />
        </mxCell>
        <mxCell id="XFbj4B8m7LpfgLLOF7sG-39" value="" style="html=1;points=[[0,0,0,0,5],[0,1,0,0,-5],[1,0,0,0,5],[1,1,0,0,-5]];perimeter=orthogonalPerimeter;outlineConnect=0;targetShapes=umlLifeline;portConstraint=eastwest;newEdgeStyle={&quot;curved&quot;:0,&quot;rounded&quot;:0};strokeColor=#000000;fillColor=#dae8fc;" vertex="1" parent="XFbj4B8m7LpfgLLOF7sG-38">
          <mxGeometry x="40" y="420" width="10" height="50" as="geometry" />
        </mxCell>
        <mxCell id="XFbj4B8m7LpfgLLOF7sG-40" value="&quot;create&quot;" style="html=1;verticalAlign=bottom;endArrow=open;dashed=1;endSize=8;curved=0;rounded=0;fontStyle=2;fontSize=13;" edge="1" parent="1">
          <mxGeometry relative="1" as="geometry">
            <mxPoint x="-410.6111111111111" y="404" as="sourcePoint" />
            <mxPoint x="510.00000000000045" y="404" as="targetPoint" />
          </mxGeometry>
        </mxCell>
        <mxCell id="XFbj4B8m7LpfgLLOF7sG-41" value="AddBulkOffer" style="shape=umlLifeline;perimeter=lifelinePerimeter;whiteSpace=wrap;html=1;container=1;dropTarget=0;collapsible=0;recursiveResize=0;outlineConnect=0;portConstraint=eastwest;newEdgeStyle={&quot;curved&quot;:0,&quot;rounded&quot;:0};fontSize=14;fontStyle=1;fillColor=#dae8fc;strokeColor=#6c8ebf;" vertex="1" parent="1">
          <mxGeometry x="620" y="-40" width="120" height="1720" as="geometry" />
        </mxCell>
        <mxCell id="XFbj4B8m7LpfgLLOF7sG-42" value="" style="html=1;points=[[0,0,0,0,5],[0,1,0,0,-5],[1,0,0,0,5],[1,1,0,0,-5]];perimeter=orthogonalPerimeter;outlineConnect=0;targetShapes=umlLifeline;portConstraint=eastwest;newEdgeStyle={&quot;curved&quot;:0,&quot;rounded&quot;:0};strokeColor=#000000;fillColor=#dae8fc;" vertex="1" parent="XFbj4B8m7LpfgLLOF7sG-41">
          <mxGeometry x="55" y="440" width="10" height="220" as="geometry" />
        </mxCell>
        <mxCell id="XFbj4B8m7LpfgLLOF7sG-81" value="" style="html=1;points=[[0,0,0,0,5],[0,1,0,0,-5],[1,0,0,0,5],[1,1,0,0,-5]];perimeter=orthogonalPerimeter;outlineConnect=0;targetShapes=umlLifeline;portConstraint=eastwest;newEdgeStyle={&quot;curved&quot;:0,&quot;rounded&quot;:0};strokeColor=#000000;fillColor=#dae8fc;" vertex="1" parent="XFbj4B8m7LpfgLLOF7sG-41">
          <mxGeometry x="55" y="1420" width="10" height="70" as="geometry" />
        </mxCell>
        <mxCell id="XFbj4B8m7LpfgLLOF7sG-43" value="call" style="html=1;verticalAlign=bottom;startArrow=oval;startFill=1;endArrow=block;startSize=8;curved=0;rounded=0;fontSize=13;fontStyle=2;labelBackgroundColor=none;" edge="1" parent="1" target="XFbj4B8m7LpfgLLOF7sG-41">
          <mxGeometry width="60" relative="1" as="geometry">
            <mxPoint x="-410" y="450" as="sourcePoint" />
            <mxPoint x="-235" y="450" as="targetPoint" />
          </mxGeometry>
        </mxCell>
        <mxCell id="XFbj4B8m7LpfgLLOF7sG-45" value="alt" style="shape=umlFrame;whiteSpace=wrap;html=1;pointerEvents=0;" vertex="1" parent="1">
          <mxGeometry x="-900" y="490" width="2450" height="840" as="geometry" />
        </mxCell>
        <mxCell id="XFbj4B8m7LpfgLLOF7sG-46" value="Add books &amp;amp; set &quot;Event Date&quot; &amp;amp; click &quot;Publish Offer&quot;" style="text;html=1;align=center;verticalAlign=middle;resizable=0;points=[];autosize=1;fontSize=14;fontStyle=2;fillColor=#f8cecc;strokeColor=#b85450;" vertex="1" parent="1">
          <mxGeometry x="-795" y="520" width="350" height="30" as="geometry" />
        </mxCell>
        <mxCell id="XFbj4B8m7LpfgLLOF7sG-47" value="&lt;span style=&quot;font-size: 14px;&quot;&gt;Add books &amp;amp; set &quot;Event Date&quot; &amp;amp; click &quot;Publish Offer&quot;&lt;/span&gt;" style="html=1;verticalAlign=bottom;startArrow=oval;startFill=1;endArrow=block;startSize=8;curved=0;rounded=0;fontSize=13;fontStyle=2;labelBackgroundColor=none;" edge="1" parent="1" target="XFbj4B8m7LpfgLLOF7sG-41">
          <mxGeometry width="60" relative="1" as="geometry">
            <mxPoint x="-810" y="580" as="sourcePoint" />
            <mxPoint x="339.50000000000045" y="580" as="targetPoint" />
          </mxGeometry>
        </mxCell>
        <mxCell id="XFbj4B8m7LpfgLLOF7sG-49" value="checkValidation()" style="html=1;verticalAlign=bottom;startArrow=oval;startFill=1;endArrow=block;startSize=8;curved=0;rounded=0;fontSize=13;fontStyle=2;labelBackgroundColor=none;" edge="1" parent="1">
          <mxGeometry width="60" relative="1" as="geometry">
            <mxPoint x="675.0000000000006" y="1390" as="sourcePoint" />
            <mxPoint x="-411.92818181818154" y="1390" as="targetPoint" />
          </mxGeometry>
        </mxCell>
        <mxCell id="XFbj4B8m7LpfgLLOF7sG-50" value="Fill book details incorrect &amp;amp; set &quot;Event Date&quot; &amp;amp; click &quot;Publish Offer&quot;" style="text;html=1;align=center;verticalAlign=middle;resizable=0;points=[];autosize=1;fontSize=14;fontStyle=2;fillColor=#f8cecc;strokeColor=#b85450;" vertex="1" parent="1">
          <mxGeometry x="-800" y="650" width="440" height="30" as="geometry" />
        </mxCell>
        <mxCell id="XFbj4B8m7LpfgLLOF7sG-51" value="" style="html=1;points=[[0,0,0,0,5],[0,1,0,0,-5],[1,0,0,0,5],[1,1,0,0,-5]];perimeter=orthogonalPerimeter;outlineConnect=0;targetShapes=umlLifeline;portConstraint=eastwest;newEdgeStyle={&quot;curved&quot;:0,&quot;rounded&quot;:0};strokeColor=#000000;fillColor=#dae8fc;" vertex="1" parent="1">
          <mxGeometry x="675" y="690" width="10" height="100" as="geometry" />
        </mxCell>
        <mxCell id="XFbj4B8m7LpfgLLOF7sG-52" value="&lt;span style=&quot;font-size: 14px;&quot;&gt;fill book details incorrect &amp;amp; set &quot;Event Date&quot; &amp;amp; click &quot;Publish Offer&quot;&lt;/span&gt;" style="html=1;verticalAlign=bottom;startArrow=oval;startFill=1;endArrow=block;startSize=8;curved=0;rounded=0;fontSize=13;fontStyle=2;labelBackgroundColor=none;" edge="1" parent="1">
          <mxGeometry width="60" relative="1" as="geometry">
            <mxPoint x="-815" y="710" as="sourcePoint" />
            <mxPoint x="675" y="710" as="targetPoint" />
          </mxGeometry>
        </mxCell>
        <mxCell id="XFbj4B8m7LpfgLLOF7sG-53" value="WrongBookDetails" style="shape=umlLifeline;perimeter=lifelinePerimeter;whiteSpace=wrap;html=1;container=1;dropTarget=0;collapsible=0;recursiveResize=0;outlineConnect=0;portConstraint=eastwest;newEdgeStyle={&quot;curved&quot;:0,&quot;rounded&quot;:0};fontSize=14;fontStyle=1;fillColor=#dae8fc;strokeColor=#6c8ebf;" vertex="1" parent="1">
          <mxGeometry x="800" y="-40" width="140" height="1720" as="geometry" />
        </mxCell>
        <mxCell id="XFbj4B8m7LpfgLLOF7sG-54" value="" style="html=1;points=[[0,0,0,0,5],[0,1,0,0,-5],[1,0,0,0,5],[1,1,0,0,-5]];perimeter=orthogonalPerimeter;outlineConnect=0;targetShapes=umlLifeline;portConstraint=eastwest;newEdgeStyle={&quot;curved&quot;:0,&quot;rounded&quot;:0};strokeColor=#000000;fillColor=#dae8fc;" vertex="1" parent="XFbj4B8m7LpfgLLOF7sG-53">
          <mxGeometry x="65" y="740" width="10" height="80" as="geometry" />
        </mxCell>
        <mxCell id="XFbj4B8m7LpfgLLOF7sG-55" value="call" style="html=1;verticalAlign=bottom;startArrow=oval;startFill=1;endArrow=block;startSize=8;curved=0;rounded=0;fontSize=13;fontStyle=2;labelBackgroundColor=none;" edge="1" parent="1">
          <mxGeometry width="60" relative="1" as="geometry">
            <mxPoint x="685" y="725" as="sourcePoint" />
            <mxPoint x="865" y="725" as="targetPoint" />
          </mxGeometry>
        </mxCell>
        <mxCell id="XFbj4B8m7LpfgLLOF7sG-56" value="call" style="html=1;verticalAlign=bottom;startArrow=oval;startFill=1;endArrow=block;startSize=8;curved=0;rounded=0;fontSize=13;fontStyle=2;labelBackgroundColor=none;" edge="1" parent="1">
          <mxGeometry width="60" relative="1" as="geometry">
            <mxPoint x="865" y="753" as="sourcePoint" />
            <mxPoint x="685" y="753" as="targetPoint" />
          </mxGeometry>
        </mxCell>
        <mxCell id="XFbj4B8m7LpfgLLOF7sG-57" value="&lt;span style=&quot;font-size: 14px;&quot;&gt;fill book details correct &amp;amp; set &quot;Event Date&quot; &amp;amp; click &quot;Publish Offer&quot;&lt;/span&gt;" style="html=1;verticalAlign=bottom;startArrow=oval;startFill=1;endArrow=block;startSize=8;curved=0;rounded=0;fontSize=13;fontStyle=2;labelBackgroundColor=none;" edge="1" parent="1">
          <mxGeometry width="60" relative="1" as="geometry">
            <mxPoint x="-815" y="770" as="sourcePoint" />
            <mxPoint x="675" y="770" as="targetPoint" />
          </mxGeometry>
        </mxCell>
        <mxCell id="XFbj4B8m7LpfgLLOF7sG-58" value="WrongEventDate" style="shape=umlLifeline;perimeter=lifelinePerimeter;whiteSpace=wrap;html=1;container=1;dropTarget=0;collapsible=0;recursiveResize=0;outlineConnect=0;portConstraint=eastwest;newEdgeStyle={&quot;curved&quot;:0,&quot;rounded&quot;:0};fontSize=14;fontStyle=1;fillColor=#dae8fc;strokeColor=#6c8ebf;" vertex="1" parent="1">
          <mxGeometry x="1000" y="-40" width="140" height="1720" as="geometry" />
        </mxCell>
        <mxCell id="XFbj4B8m7LpfgLLOF7sG-59" value="" style="html=1;points=[[0,0,0,0,5],[0,1,0,0,-5],[1,0,0,0,5],[1,1,0,0,-5]];perimeter=orthogonalPerimeter;outlineConnect=0;targetShapes=umlLifeline;portConstraint=eastwest;newEdgeStyle={&quot;curved&quot;:0,&quot;rounded&quot;:0};strokeColor=#000000;fillColor=#dae8fc;" vertex="1" parent="XFbj4B8m7LpfgLLOF7sG-58">
          <mxGeometry x="65" y="915" width="10" height="80" as="geometry" />
        </mxCell>
        <mxCell id="XFbj4B8m7LpfgLLOF7sG-60" value="Add books &amp;amp; set incorrect &quot;Event Date&quot; &amp;amp; click &quot;Publish Offer&quot;" style="text;html=1;align=center;verticalAlign=middle;resizable=0;points=[];autosize=1;fontSize=14;fontStyle=2;fillColor=#f8cecc;strokeColor=#b85450;" vertex="1" parent="1">
          <mxGeometry x="-800" y="810" width="400" height="30" as="geometry" />
        </mxCell>
        <mxCell id="XFbj4B8m7LpfgLLOF7sG-61" value="" style="html=1;points=[[0,0,0,0,5],[0,1,0,0,-5],[1,0,0,0,5],[1,1,0,0,-5]];perimeter=orthogonalPerimeter;outlineConnect=0;targetShapes=umlLifeline;portConstraint=eastwest;newEdgeStyle={&quot;curved&quot;:0,&quot;rounded&quot;:0};strokeColor=#000000;fillColor=#dae8fc;" vertex="1" parent="1">
          <mxGeometry x="675" y="860" width="10" height="110" as="geometry" />
        </mxCell>
        <mxCell id="XFbj4B8m7LpfgLLOF7sG-63" value="&lt;span style=&quot;font-size: 14px;&quot;&gt;Add books &amp;amp; set incorrect &quot;Event Date&quot; &amp;amp; click &quot;Publish Offer&quot;&lt;/span&gt;" style="html=1;verticalAlign=bottom;startArrow=oval;startFill=1;endArrow=block;startSize=8;curved=0;rounded=0;fontSize=13;fontStyle=2;labelBackgroundColor=none;" edge="1" parent="1">
          <mxGeometry width="60" relative="1" as="geometry">
            <mxPoint x="-815" y="880" as="sourcePoint" />
            <mxPoint x="675" y="880" as="targetPoint" />
          </mxGeometry>
        </mxCell>
        <mxCell id="XFbj4B8m7LpfgLLOF7sG-64" value="&lt;span style=&quot;font-size: 14px;&quot;&gt;Add books &amp;amp; set correct &quot;Event Date&quot; &amp;amp; click &quot;Publish Offer&quot;&lt;/span&gt;" style="html=1;verticalAlign=bottom;startArrow=oval;startFill=1;endArrow=block;startSize=8;curved=0;rounded=0;fontSize=13;fontStyle=2;labelBackgroundColor=none;" edge="1" parent="1">
          <mxGeometry width="60" relative="1" as="geometry">
            <mxPoint x="-815" y="952" as="sourcePoint" />
            <mxPoint x="675" y="952" as="targetPoint" />
          </mxGeometry>
        </mxCell>
        <mxCell id="XFbj4B8m7LpfgLLOF7sG-65" value="call" style="html=1;verticalAlign=bottom;startArrow=oval;startFill=1;endArrow=block;startSize=8;curved=0;rounded=0;fontSize=13;fontStyle=2;labelBackgroundColor=none;" edge="1" parent="1">
          <mxGeometry width="60" relative="1" as="geometry">
            <mxPoint x="685" y="899" as="sourcePoint" />
            <mxPoint x="1069.5" y="899" as="targetPoint" />
          </mxGeometry>
        </mxCell>
        <mxCell id="XFbj4B8m7LpfgLLOF7sG-66" value="call" style="html=1;verticalAlign=bottom;startArrow=oval;startFill=1;endArrow=block;startSize=8;curved=0;rounded=0;fontSize=13;fontStyle=2;labelBackgroundColor=none;" edge="1" parent="1">
          <mxGeometry width="60" relative="1" as="geometry">
            <mxPoint x="1069.5" y="932" as="sourcePoint" />
            <mxPoint x="685" y="932" as="targetPoint" />
          </mxGeometry>
        </mxCell>
        <mxCell id="XFbj4B8m7LpfgLLOF7sG-67" value="DuplicateBookInBulkOffer" style="shape=umlLifeline;perimeter=lifelinePerimeter;whiteSpace=wrap;html=1;container=1;dropTarget=0;collapsible=0;recursiveResize=0;outlineConnect=0;portConstraint=eastwest;newEdgeStyle={&quot;curved&quot;:0,&quot;rounded&quot;:0};fontSize=14;fontStyle=1;fillColor=#dae8fc;strokeColor=#6c8ebf;" vertex="1" parent="1">
          <mxGeometry x="1200" y="-40" width="200" height="1720" as="geometry" />
        </mxCell>
        <mxCell id="XFbj4B8m7LpfgLLOF7sG-68" value="" style="html=1;points=[[0,0,0,0,5],[0,1,0,0,-5],[1,0,0,0,5],[1,1,0,0,-5]];perimeter=orthogonalPerimeter;outlineConnect=0;targetShapes=umlLifeline;portConstraint=eastwest;newEdgeStyle={&quot;curved&quot;:0,&quot;rounded&quot;:0};strokeColor=#000000;fillColor=#dae8fc;" vertex="1" parent="XFbj4B8m7LpfgLLOF7sG-67">
          <mxGeometry x="95" y="1100" width="10" height="50" as="geometry" />
        </mxCell>
        <mxCell id="XFbj4B8m7LpfgLLOF7sG-69" value="Add duplicate book &amp;amp; set &quot;Event Date&quot; &amp;amp; click &quot;Publish Offer&quot;" style="text;html=1;align=center;verticalAlign=middle;resizable=0;points=[];autosize=1;fontSize=14;fontStyle=2;fillColor=#f8cecc;strokeColor=#b85450;" vertex="1" parent="1">
          <mxGeometry x="-795" y="1000" width="400" height="30" as="geometry" />
        </mxCell>
        <mxCell id="XFbj4B8m7LpfgLLOF7sG-70" value="&lt;span style=&quot;font-size: 14px;&quot;&gt;Add duplicate book &amp;amp; set &quot;Event Date&quot; &amp;amp; click &quot;Publish Offer&quot;&lt;/span&gt;" style="html=1;verticalAlign=bottom;startArrow=oval;startFill=1;endArrow=block;startSize=8;curved=0;rounded=0;fontSize=13;fontStyle=2;labelBackgroundColor=none;" edge="1" parent="1">
          <mxGeometry width="60" relative="1" as="geometry">
            <mxPoint x="-815" y="1064.33" as="sourcePoint" />
            <mxPoint x="675" y="1064.33" as="targetPoint" />
          </mxGeometry>
        </mxCell>
        <mxCell id="XFbj4B8m7LpfgLLOF7sG-71" value="" style="html=1;points=[[0,0,0,0,5],[0,1,0,0,-5],[1,0,0,0,5],[1,1,0,0,-5]];perimeter=orthogonalPerimeter;outlineConnect=0;targetShapes=umlLifeline;portConstraint=eastwest;newEdgeStyle={&quot;curved&quot;:0,&quot;rounded&quot;:0};strokeColor=#000000;fillColor=#dae8fc;" vertex="1" parent="1">
          <mxGeometry x="675" y="1040" width="10" height="70" as="geometry" />
        </mxCell>
        <mxCell id="XFbj4B8m7LpfgLLOF7sG-72" value="call" style="html=1;verticalAlign=bottom;startArrow=oval;startFill=1;endArrow=block;startSize=8;curved=0;rounded=0;fontSize=13;fontStyle=2;labelBackgroundColor=none;" edge="1" parent="1" target="XFbj4B8m7LpfgLLOF7sG-67">
          <mxGeometry width="60" relative="1" as="geometry">
            <mxPoint x="685" y="1084.33" as="sourcePoint" />
            <mxPoint x="1069.5" y="1084.33" as="targetPoint" />
          </mxGeometry>
        </mxCell>
        <mxCell id="XFbj4B8m7LpfgLLOF7sG-73" value="ExceedsLimit" style="shape=umlLifeline;perimeter=lifelinePerimeter;whiteSpace=wrap;html=1;container=1;dropTarget=0;collapsible=0;recursiveResize=0;outlineConnect=0;portConstraint=eastwest;newEdgeStyle={&quot;curved&quot;:0,&quot;rounded&quot;:0};fontSize=14;fontStyle=1;fillColor=#dae8fc;strokeColor=#6c8ebf;" vertex="1" parent="1">
          <mxGeometry x="1440" y="-40" width="130" height="1720" as="geometry" />
        </mxCell>
        <mxCell id="XFbj4B8m7LpfgLLOF7sG-74" value="" style="html=1;points=[[0,0,0,0,5],[0,1,0,0,-5],[1,0,0,0,5],[1,1,0,0,-5]];perimeter=orthogonalPerimeter;outlineConnect=0;targetShapes=umlLifeline;portConstraint=eastwest;newEdgeStyle={&quot;curved&quot;:0,&quot;rounded&quot;:0};strokeColor=#000000;fillColor=#dae8fc;" vertex="1" parent="XFbj4B8m7LpfgLLOF7sG-73">
          <mxGeometry x="60" y="1259" width="10" height="80" as="geometry" />
        </mxCell>
        <mxCell id="XFbj4B8m7LpfgLLOF7sG-75" value="Add books that exceeds limit &amp;amp; set &quot;Event Date&quot; &amp;amp; click &quot;Publish Offer&quot;" style="text;html=1;align=center;verticalAlign=middle;resizable=0;points=[];autosize=1;fontSize=14;fontStyle=2;fillColor=#f8cecc;strokeColor=#b85450;" vertex="1" parent="1">
          <mxGeometry x="-790" y="1140" width="460" height="30" as="geometry" />
        </mxCell>
        <mxCell id="XFbj4B8m7LpfgLLOF7sG-76" value="&lt;span style=&quot;font-size: 14px;&quot;&gt;Add books that exceeds limit &amp;amp; set &quot;Event Date&quot; &amp;amp; click &quot;Publish Offer&quot;&lt;/span&gt;" style="html=1;verticalAlign=bottom;startArrow=oval;startFill=1;endArrow=block;startSize=8;curved=0;rounded=0;fontSize=13;fontStyle=2;labelBackgroundColor=none;" edge="1" parent="1">
          <mxGeometry width="60" relative="1" as="geometry">
            <mxPoint x="-815" y="1220" as="sourcePoint" />
            <mxPoint x="675" y="1220" as="targetPoint" />
          </mxGeometry>
        </mxCell>
        <mxCell id="XFbj4B8m7LpfgLLOF7sG-77" value="" style="html=1;points=[[0,0,0,0,5],[0,1,0,0,-5],[1,0,0,0,5],[1,1,0,0,-5]];perimeter=orthogonalPerimeter;outlineConnect=0;targetShapes=umlLifeline;portConstraint=eastwest;newEdgeStyle={&quot;curved&quot;:0,&quot;rounded&quot;:0};strokeColor=#000000;fillColor=#dae8fc;" vertex="1" parent="1">
          <mxGeometry x="675" y="1200" width="10" height="110" as="geometry" />
        </mxCell>
        <mxCell id="XFbj4B8m7LpfgLLOF7sG-78" value="call" style="html=1;verticalAlign=bottom;startArrow=oval;startFill=1;endArrow=block;startSize=8;curved=0;rounded=0;fontSize=13;fontStyle=2;labelBackgroundColor=none;" edge="1" parent="1" target="XFbj4B8m7LpfgLLOF7sG-73">
          <mxGeometry width="60" relative="1" as="geometry">
            <mxPoint x="685" y="1240.33" as="sourcePoint" />
            <mxPoint x="1300" y="1240" as="targetPoint" />
          </mxGeometry>
        </mxCell>
        <mxCell id="XFbj4B8m7LpfgLLOF7sG-79" value="call" style="html=1;verticalAlign=bottom;startArrow=oval;startFill=1;endArrow=block;startSize=8;curved=0;rounded=0;fontSize=13;fontStyle=2;labelBackgroundColor=none;" edge="1" parent="1" source="XFbj4B8m7LpfgLLOF7sG-73">
          <mxGeometry width="60" relative="1" as="geometry">
            <mxPoint x="1510.33" y="1270" as="sourcePoint" />
            <mxPoint x="684.9966666666666" y="1270" as="targetPoint" />
          </mxGeometry>
        </mxCell>
        <mxCell id="XFbj4B8m7LpfgLLOF7sG-80" value="&lt;span style=&quot;font-size: 14px;&quot;&gt;Add books that adjust the limit &amp;amp; set &quot;Event Date&quot; &amp;amp; click &quot;Publish Offer&quot;&lt;/span&gt;" style="html=1;verticalAlign=bottom;startArrow=oval;startFill=1;endArrow=block;startSize=8;curved=0;rounded=0;fontSize=13;fontStyle=2;labelBackgroundColor=none;" edge="1" parent="1">
          <mxGeometry width="60" relative="1" as="geometry">
            <mxPoint x="-815" y="1300" as="sourcePoint" />
            <mxPoint x="675" y="1300" as="targetPoint" />
          </mxGeometry>
        </mxCell>
        <mxCell id="XFbj4B8m7LpfgLLOF7sG-82" value="BulkOfferCreatedSuccessfully" style="shape=umlLifeline;perimeter=lifelinePerimeter;whiteSpace=wrap;html=1;container=1;dropTarget=0;collapsible=0;recursiveResize=0;outlineConnect=0;portConstraint=eastwest;newEdgeStyle={&quot;curved&quot;:0,&quot;rounded&quot;:0};fontSize=14;fontStyle=1;fillColor=#dae8fc;strokeColor=#6c8ebf;" vertex="1" parent="1">
          <mxGeometry x="1640" y="-40" width="200" height="1720" as="geometry" />
        </mxCell>
        <mxCell id="XFbj4B8m7LpfgLLOF7sG-83" value="" style="html=1;points=[[0,0,0,0,5],[0,1,0,0,-5],[1,0,0,0,5],[1,1,0,0,-5]];perimeter=orthogonalPerimeter;outlineConnect=0;targetShapes=umlLifeline;portConstraint=eastwest;newEdgeStyle={&quot;curved&quot;:0,&quot;rounded&quot;:0};strokeColor=#000000;fillColor=#dae8fc;" vertex="1" parent="XFbj4B8m7LpfgLLOF7sG-82">
          <mxGeometry x="95" y="1610" width="10" height="50" as="geometry" />
        </mxCell>
        <mxCell id="XFbj4B8m7LpfgLLOF7sG-85" value="saveBulkOffer()" style="html=1;verticalAlign=bottom;startArrow=oval;startFill=1;endArrow=block;startSize=8;curved=0;rounded=0;fontSize=13;fontStyle=2;labelBackgroundColor=none;" edge="1" parent="1">
          <mxGeometry width="60" relative="1" as="geometry">
            <mxPoint x="675.0000000000006" y="1420" as="sourcePoint" />
            <mxPoint x="-411.92818181818154" y="1420" as="targetPoint" />
          </mxGeometry>
        </mxCell>
        <mxCell id="XFbj4B8m7LpfgLLOF7sG-86" value="addBulkOffer()" style="html=1;verticalAlign=bottom;startArrow=oval;startFill=1;endArrow=block;startSize=8;curved=0;rounded=0;fontSize=13;fontStyle=2;labelBackgroundColor=none;" edge="1" parent="1">
          <mxGeometry width="60" relative="1" as="geometry">
            <mxPoint x="-405" y="1468.0000000000005" as="sourcePoint" />
            <mxPoint x="-220.5" y="1468.0000000000005" as="targetPoint" />
          </mxGeometry>
        </mxCell>
        <mxCell id="XFbj4B8m7LpfgLLOF7sG-88" value="save()" style="html=1;verticalAlign=bottom;startArrow=oval;startFill=1;endArrow=block;startSize=8;curved=0;rounded=0;fontSize=13;fontStyle=2;labelBackgroundColor=none;" edge="1" parent="1" target="XFbj4B8m7LpfgLLOF7sG-87">
          <mxGeometry width="60" relative="1" as="geometry">
            <mxPoint x="-220" y="1500.0000000000005" as="sourcePoint" />
            <mxPoint x="-35.5" y="1500.0000000000005" as="targetPoint" />
          </mxGeometry>
        </mxCell>
        <mxCell id="XFbj4B8m7LpfgLLOF7sG-90" value="save&amp;nbsp; Bulk Offer" style="html=1;verticalAlign=bottom;startArrow=oval;startFill=1;endArrow=block;startSize=8;curved=0;rounded=0;fontSize=13;fontStyle=2;labelBackgroundColor=none;" edge="1" parent="1" target="XFbj4B8m7LpfgLLOF7sG-89">
          <mxGeometry width="60" relative="1" as="geometry">
            <mxPoint x="-20" y="1520.0000000000005" as="sourcePoint" />
            <mxPoint x="180" y="1520" as="targetPoint" />
          </mxGeometry>
        </mxCell>
        <mxCell id="XFbj4B8m7LpfgLLOF7sG-91" value="call" style="html=1;verticalAlign=bottom;startArrow=oval;startFill=1;endArrow=block;startSize=8;curved=0;rounded=0;fontSize=13;fontStyle=2;labelBackgroundColor=none;" edge="1" parent="1" target="XFbj4B8m7LpfgLLOF7sG-83">
          <mxGeometry width="60" relative="1" as="geometry">
            <mxPoint x="-410" y="1580.33" as="sourcePoint" />
            <mxPoint x="410" y="1580" as="targetPoint" />
          </mxGeometry>
        </mxCell>
        <mxCell id="XFbj4B8m7LpfgLLOF7sG-92" value="sendEmail()" style="html=1;align=left;spacingLeft=2;endArrow=block;rounded=0;edgeStyle=orthogonalEdgeStyle;curved=0;rounded=0;fontSize=13;fontStyle=2" edge="1" parent="1">
          <mxGeometry relative="1" as="geometry">
            <mxPoint x="-400" y="1625" as="sourcePoint" />
            <Array as="points">
              <mxPoint x="-370" y="1655" />
            </Array>
            <mxPoint x="-395" y="1655.0588235294122" as="targetPoint" />
          </mxGeometry>
        </mxCell>
      </root>
    </mxGraphModel>
  </diagram>
</mxfile>
